<svg xmlns="http://www.w3.org/2000/svg" viewBox="0 0 800 480"><defs><style>.cls-1{fill:#d6edf7;}.cls-2{fill:#e9f5fb;}.cls-3{fill:#d0eaf5;}</style></defs><title>Fichier 1</title><g id="Calque_2" data-name="Calque 2"><g id="Calque_1-2" data-name="Calque 1"><path class="cls-1" d="M0,480V0H800V480H0"/><path class="cls-2" d="M0,367.5V211.6a26.15,26.15,0,0,1,12-2.7,26.61,26.61,0,0,1,11.9,2.65,67.84,67.84,0,0,1,27.9-5.65h1.3A22.13,22.13,0,0,1,60,194a25.52,25.52,0,0,1,18-6.95A25.9,25.9,0,0,1,91.6,190.6a68.14,68.14,0,0,1,24.55-19,20.68,20.68,0,0,1,1.9-5.65,22,22,0,0,1-2.2-8l-.1-2,0-1a22,22,0,0,1,7.4-15.75,25.64,25.64,0,0,1,18-7l5.55.55a60.39,60.39,0,0,1,13.6-18q19.1-17.81,46.2-17.8a68,68,0,0,1,28.75,6,25.89,25.89,0,0,1,13.45-3.5,25.52,25.52,0,0,1,18.05,6.95,22.19,22.19,0,0,1,7.45,14.85l6.75-.8a25.52,25.52,0,0,1,18.05,6.95,22.82,22.82,0,0,1,5.55,7.55q27,0,46.05,17.8A64.22,64.22,0,0,1,361,164.85l.5-.5a26.91,26.91,0,0,1,36.1,0,22.7,22.7,0,0,1,6.7,10.7l4.5-.15a74,74,0,0,1,13.75,1.25,22.54,22.54,0,0,1,6.95-11.7,27.11,27.11,0,0,1,33.6-2.1A63.45,63.45,0,0,1,492.6,148.2a22.85,22.85,0,0,1,6.75-10.85,26.91,26.91,0,0,1,36.1,0,22.76,22.76,0,0,1,6.45,9.9l4.5-.35a25.64,25.64,0,0,1,18.05,6.95,22,22,0,0,1,7.45,16v1.4l0,1.6-.05.4h.05a26.54,26.54,0,0,1,11.1-2.3,25.52,25.52,0,0,1,18,6.95l.75.75,10.2-.7q25.84,0,44.4,16.15l2-2.2a27,27,0,0,1,36.15,0,23,23,0,0,1,6,8.65,64.56,64.56,0,0,1,15.75-4,29.7,29.7,0,0,1,8.7-16.9,30.2,30.2,0,0,1,11.6-7.4,31.33,31.33,0,0,1,10.25-1.65,29.79,29.79,0,0,1,21.85,9,33.86,33.86,0,0,1,3.9,4.65A29.44,29.44,0,0,1,791,193.1a29.79,29.79,0,0,1,9,21.05V445.3h0V367.55h-16.9l-11,19.2-18-5.1-11.55-52.1-16.75-9-12.85-75.2h-16L675,338.55l-11,3.2L645.7,424.7H622.45l-5.35-24.45-8.35-3.85-7.7-28.9H576l-18.65,32.15H545.1l-22.5,42.4H500.75l-7.7-22.5-47.6-23.8-2.55-34.7L432,356.55,420.4,210H408.2l-16.75,75.2-10.25,7.7L371.55,345H363.8l-23.75,86.75L312.4,427.9l-22.5-39.85H279.6L259.05,300.6H222.4l-14.75,54.65h-11l-18,31.5-18-5.1-11.55-52.1-16.75-9-12.85-75.2h-16l-21.85,93.2-11,3.2L52.35,424.7H29.1l-5.35-24.45L15.4,396.4,7.7,367.5H0"/><path class="cls-3" d="M0,367.5H7.7l7.7,28.9,8.35,3.85L29.1,424.7H52.35L70.7,341.75l11-3.2,21.85-93.2h16l12.85,75.2,16.75,9,11.55,52.1,18,5.1,18-31.5h11L222.4,300.6h36.65l20.55,87.45h10.3l22.5,39.85,27.65,3.85L363.8,345h7.75l9.65-52.1,10.25-7.7L408.2,210h12.2L432,356.55l10.95,4.5,2.55,34.7,47.6,23.8,7.7,22.5H522.6l22.5-42.4h12.25L576,367.5h25l7.7,28.9,8.35,3.85,5.35,24.45H645.7l18.35-82.95,11-3.2,21.85-93.2h16l12.85,75.2,16.75,9,11.55,52.1,18,5.1,11-19.2H800V480H0V367.5"/></g></g></svg>