<svg xmlns="http://www.w3.org/2000/svg" viewBox="0 0 808.5 71.25"><defs><style>.cls-1{fill:#725639;}.cls-2{fill:#a87f54;}.cls-3{fill:#97714a;}</style></defs><title>Fichier 2</title><g id="Calque_2" data-name="Calque 2"><g id="Calque_1-2" data-name="Calque 1"><path class="cls-1" d="M0,38V35.8l33.55-2.25,7.6,7.6,49.05,3.7,43.85-11.7,22-24.95.65-.5.8-.2,90.4-3.75.8.15,60.15,23h40.2L373.2,12.25a1.76,1.76,0,0,1,1-.3h62a2,2,0,0,1,1.4.55l33,31.6H508.7l.75.15,25.05,10.3h37.6l25.55-27a2,2,0,0,1,1.25-.65l37.45-3.65L657.5,3.55A1.77,1.77,0,0,1,658.8,3l84.45-3,.9.2a1.82,1.82,0,0,1,.75.6l19,24.85,44.6,10.2v2L762.7,27.4,743.3,2,658.85,5,637.2,25.15,599.1,28.9,573,56.55H534.1L508.7,46.1H469.85L436.2,14h-62l-24.65,15h-41.1L248,5.75,157.55,9.5l-22.4,25.4-44.8,12L40.25,43.1l-7.7-7.7L0,38"/><path class="cls-2" d="M0,38,32.55,35.4l7.7,7.7,50.1,3.75,44.8-12,22.4-25.4L248,5.75l60.5,23.15h41.1L374.2,14h62L469.85,46.1H508.7l25.4,10.45H573L599.1,28.9l38.1-3.75L658.85,5,743.3,2l19.4,25.4,45.8,10.5V45L759.2,30.5l-20-25.25L660.2,10,640.45,32,595.2,39.25l-20.5,21L536.25,61.5,509,50l-39.5,2.5-36-34.75L375.75,16.5l-22.5,20-44-2.5-61-22-94.5,7.75-17.5,18L89.25,53,40,47l-8.25-7.45L0,45.05V38M747,40.4l-6-4.35-1.1-9.3,7.3-1.65,5.65,10.95L747,40.4m18.5-1.75.75,4.75-5,4.55-8.2-1.25-2.7-3.45,6-4.6h9.1"/><path class="cls-3" d="M808.5,45v26.3H0V45.05l31.75-5.5L40,47l49.25,6,47-15.25,17.5-18L248.25,12l61,22,44,2.5,22.5-20,57.75,1.25,36,34.75L509,50l27.25,11.5,38.45-1.25,20.5-21L640.45,32,660.2,10l79-4.75,20,25.25L808.5,45m-43-6.3h-9.1l-6,4.6,2.7,3.45,8.2,1.25,5-4.55-.75-4.75M747,40.4l5.85-4.35L747.15,25.1l-7.3,1.65,1.1,9.3,6,4.35"/></g></g></svg>