<svg xmlns="http://www.w3.org/2000/svg" viewBox="0 0 107.99 238.4"><defs><style>.cls-1{fill:#725639;}.cls-2{fill:#97714a;}.cls-3{fill:#a87f54;}</style></defs><title>Fichier 3</title><g id="Calque_2" data-name="Calque 2"><g id="Calque_1-2" data-name="Calque 1"><path class="cls-1" d="M.14,1.3A1.82,1.82,0,0,1,.84.35,2,2,0,0,1,2,0H106l1.1.3.7.85.2,1.1L100.44,60.3a1.9,1.9,0,0,1-.75,1.3l-4.55,3.5-8,69.25a2,2,0,0,1-.65,1.3,2.07,2.07,0,0,1-1.35.5H81.84L70.54,236.6a2,2,0,0,1-.65,1.3,2.07,2.07,0,0,1-1.35.5H63.39L62.14,238a2,2,0,0,1-.7-1.15l-25-121.2-7.75-7a1.47,1.47,0,0,1-.55-.95L.09,2.5A1.66,1.66,0,0,1,.14,1.3m103,22.7L106,2H2L16.74,57.3,30,107.15l8.2,7.4,9.7,47L63.39,236.4h5.15l1.2-10.7L80,134.6l.05-.45h5.15l5-42.85,3.1-27.25,5.2-4,4.7-36"/><path class="cls-2" d="M103.14,24l-7.8,11.25-2.1,28.8L90.14,91.3l-8.3,10.2L80,134.6,69.74,225.7l-5.4-4.2-9.75-51.75-6.65-8.2-9.7-47-7.4-44.3-14.1-13L2,2H106l-2.85,22"/><path class="cls-3" d="M103.14,24l-4.7,36.05-5.2,4,2.1-28.8L103.14,24m-13,67.3-5,42.85H80l-.05.45,1.85-33.1,8.3-10.2M69.74,225.7l-1.2,10.7H63.39L47.94,161.55l6.65,8.2,9.75,51.75,5.4,4.2M38.24,114.55l-8.2-7.4L16.74,57.3l14.1,13,7.4,44.3"/></g></g></svg>